<?xml version="1.0" encoding="UTF-8" standalone="no"?>
<svg
   width="128pt"
   height="128pt"
   version="1.1"
   viewBox="0 0 128 128"
   id="svg79"
   sodipodi:docname="noun-email-6970519.svg"
   inkscape:version="1.2.1 (9c6d41e410, 2022-07-14)"
   xmlns:inkscape="http://www.inkscape.org/namespaces/inkscape"
   xmlns:sodipodi="http://sodipodi.sourceforge.net/DTD/sodipodi-0.dtd"
   xmlns="http://www.w3.org/2000/svg"
   xmlns:svg="http://www.w3.org/2000/svg">
  <defs
     id="defs83" />
  <sodipodi:namedview
     id="namedview81"
     pagecolor="#ffffff"
     bordercolor="#000000"
     borderopacity="0.25"
     inkscape:showpageshadow="2"
     inkscape:pageopacity="0.0"
     inkscape:pagecheckerboard="0"
     inkscape:deskcolor="#d1d1d1"
     inkscape:document-units="pt"
     showgrid="false"
     inkscape:zoom="4.7109375"
     inkscape:cx="85.333333"
     inkscape:cy="85.333333"
     inkscape:window-width="944"
     inkscape:window-height="1033"
     inkscape:window-x="0"
     inkscape:window-y="0"
     inkscape:window-maximized="0"
     inkscape:current-layer="svg79" />
  <path
     d="m112.4 109.95h-96.801c-6.0547-0.003907-10.953-4.9102-10.965-10.961v-69.98c0.011719-6.0508 4.9102-10.953 10.965-10.961h96.801c6.0547 0.003906 10.953 4.9102 10.965 10.961v69.98c-0.011719 6.0508-4.9102 10.953-10.965 10.961zm-99.766-78.199v67.238c0.003907 1.6367 1.3281 2.9609 2.9648 2.9609h96.801c1.6367 0 2.9609-1.3242 2.9648-2.9609v-67.238l-44.523 45.16c-3.8086 3.6719-9.8398 3.6797-13.66 0.019532zm5.6133-5.6992 44.605 45.242c0.26172 0.38672 0.69531 0.61328 1.1602 0.60938 0.46484-0.003906 0.89453-0.23828 1.1445-0.62891l44.59-45.219z"
     id="path77" />
  <path
     style="fill:#ffffff;stroke-width:0.212272"
     d="m 19.307968,135.45506 c -1.057706,-0.48045 -1.926354,-1.48201 -2.214987,-2.55391 -0.147172,-0.54656 -0.20089,-15.38916 -0.164787,-45.532071 l 0.05356,-44.721178 24.623549,24.973185 c 38.619444,39.167804 35.650893,36.221054 37.359867,37.085534 1.990699,1.007 3.462343,1.41559 5.625207,1.56183 2.959505,0.20009 6.118137,-0.71005 8.566665,-2.46845 0.499722,-0.35888 14.322928,-14.263932 30.718228,-30.900124 l 29.80964,-30.247624 0.0536,44.719003 c 0.0361,30.141425 -0.0176,44.983335 -0.16479,45.529895 -0.28863,1.0719 -1.15727,2.07346 -2.21498,2.55391 -0.82632,0.37535 -3.25464,0.38968 -66.025371,0.38968 -62.770727,0 -65.199047,-0.0143 -66.025365,-0.38968 z"
     id="path258"
     transform="scale(0.75)" />
  <path
     style="fill:#ffffff;stroke-width:0.212272"
     d="M 81.166916,92.179104 C 79.211934,90.223549 65.709484,76.539967 51.161471,61.771144 L 24.710539,34.91874 55.092147,34.864948 c 16.709882,-0.02958 43.992065,-0.02958 60.627073,0 l 30.24547,0.05379 -26.45653,26.852404 C 84.461337,97.342393 86.079074,95.73466 85.333333,95.73466 c -0.508531,0 -1.212395,-0.600668 -4.166417,-3.555556 z"
     id="path260"
     transform="scale(0.75)" />
</svg>
