<?xml version="1.0" encoding="UTF-8" standalone="no"?>
<svg
   width="128pt"
   height="128pt"
   version="1.1"
   viewBox="0 0 128 128"
   id="svg455"
   sodipodi:docname="noun-copy-5631678.svg"
   inkscape:version="1.2.1 (9c6d41e410, 2022-07-14)"
   xmlns:inkscape="http://www.inkscape.org/namespaces/inkscape"
   xmlns:sodipodi="http://sodipodi.sourceforge.net/DTD/sodipodi-0.dtd"
   xmlns="http://www.w3.org/2000/svg"
   xmlns:svg="http://www.w3.org/2000/svg">
  <defs
     id="defs459" />
  <sodipodi:namedview
     id="namedview457"
     pagecolor="#ffffff"
     bordercolor="#000000"
     borderopacity="0.25"
     inkscape:showpageshadow="2"
     inkscape:pageopacity="0.0"
     inkscape:pagecheckerboard="0"
     inkscape:deskcolor="#d1d1d1"
     inkscape:document-units="pt"
     showgrid="false"
     inkscape:zoom="5.1386719"
     inkscape:cx="85.430635"
     inkscape:cy="85.430635"
     inkscape:window-width="944"
     inkscape:window-height="1033"
     inkscape:window-x="0"
     inkscape:window-y="0"
     inkscape:window-maximized="0"
     inkscape:current-layer="svg455" />
  <path
     d="m40.754 0c-7.2773 0-13.254 5.9492-13.254 13.227v4.3672h-4.3672c-7.2812 0-13.25 5.9492-13.25 13.227v83.922c0 7.2773 5.9688 13.258 13.25 13.258h64.086c7.2812 0 13.285-5.9766 13.285-13.258v-4.3594h4.332c7.2812 0 13.285-5.9492 13.285-13.227v-64.777h-0.003906c-0.003907-0.0625-0.011719-0.125-0.019532-0.19141-0.011718-0.22266-0.042968-0.44141-0.097656-0.66016-0.011719-0.070313-0.03125-0.13672-0.050781-0.20703-0.074219-0.26562-0.17969-0.52734-0.31641-0.76953-0.023437-0.042969-0.046874-0.085937-0.074218-0.125-0.15234-0.26172-0.33984-0.5-0.55078-0.71484l-28.68-28.625c-0.20703-0.19922-0.4375-0.37109-0.68359-0.51953-0.058593-0.035156-0.11328-0.070312-0.17188-0.10156-0.52734-0.28906-1.1133-0.44531-1.7109-0.45703-0.027344-0.0039062-0.050781-0.0039062-0.074219-0.0078125zm0 7.5352h41.152v15.34c0 7.2773 6.0078 13.258 13.285 13.258h15.395v61.027c0 3.2305-2.5078 5.7188-5.7578 5.7188h-64.078c-3.25 0-5.7266-2.4883-5.7266-5.7188l0.003906-83.934c0-3.2305 2.4766-5.6914 5.7266-5.6914zm48.68 5.293 15.809 15.77h-10.051c-3.25 0-5.7578-2.4961-5.7578-5.7266zm-66.301 12.297h4.3672v72.031c0 7.2773 5.9766 13.227 13.258 13.227h52.211v4.3594c0 3.2305-2.5 5.7266-5.75 5.7266h-64.086c-3.25 0-5.7188-2.4961-5.7188-5.7266v-83.922c0-3.2305 2.4727-5.6992 5.7188-5.6992zm30.625 28.734-0.003906-0.003906c-1.0039-0.003907-1.9648 0.39453-2.6758 1.1055-0.71094 0.70703-1.1055 1.6719-1.1016 2.6758 0.003907 1 0.40234 1.9531 1.1133 2.6562 0.70703 0.70312 1.668 1.0977 2.6641 1.0938h38.102c0.99609 0.003906 1.957-0.39062 2.6641-1.0938 0.71094-0.70312 1.1094-1.6562 1.1133-2.6562 0.003907-1.0039-0.39062-1.9688-1.1016-2.6758-0.71094-0.71094-1.6719-1.1094-2.6758-1.1055zm0 21.176-0.003906-0.003906c-1.0039-0.003906-1.9648 0.39453-2.6758 1.1055-0.71094 0.70703-1.1055 1.6719-1.1016 2.6758 0.003907 0.99609 0.40234 1.9531 1.1133 2.6562 0.70703 0.70312 1.668 1.0977 2.6641 1.0938h38.102c0.99609 0.003906 1.957-0.39062 2.6641-1.0938 0.71094-0.70312 1.1094-1.6602 1.1133-2.6562 0.003907-1.0039-0.39062-1.9688-1.1016-2.6758-0.71094-0.71094-1.6719-1.1094-2.6758-1.1055z"
     id="path453" />
  <path
     style="fill:#ffffff;stroke-width:0.194603"
     d="m 28.9473,160.24663 c -1.477346,-0.39781 -2.412811,-0.92645 -3.417735,-1.93137 -1.034461,-1.03446 -1.799459,-2.4977 -2.077205,-3.97314 -0.289641,-1.53863 -0.271678,-113.295587 0.01843,-114.682218 0.489303,-2.338696 2.091628,-4.378025 4.226024,-5.378591 1.059806,-0.496818 1.259425,-0.520275 4.943758,-0.580932 l 3.839359,-0.06321 0.05694,49.200419 0.05694,49.200422 0.437343,1.6334 c 0.493355,1.84259 1.632425,4.39366 2.587617,5.79523 0.92221,1.35318 3.005492,3.47491 4.375406,4.45615 1.544207,1.10608 4.072887,2.30491 6.01875,2.85343 l 1.556822,0.43885 36.165312,0.0541 36.165309,0.0541 -0.0665,3.74163 c -0.0664,3.73861 -0.067,3.74269 -0.68424,5.04561 -1.05319,2.22315 -2.92458,3.71854 -5.27856,4.218 -0.74701,0.1585 -13.00336,0.21528 -44.466743,0.206 -36.787581,-0.0108 -43.591848,-0.0549 -44.457033,-0.28788 z"
     id="path461"
     transform="scale(0.75)" />
  <path
     style="fill:#ffffff;stroke-width:0.194603"
     d="m 52.045612,136.71811 c -2.126431,-0.78339 -3.714356,-2.2087 -4.624788,-4.15116 l -0.521546,-1.11275 -0.05027,-57.299489 c -0.05543,-63.18747 -0.142779,-58.563737 1.144197,-60.569314 0.795166,-1.239159 1.741684,-2.038169 3.275415,-2.764967 l 1.274136,-0.603782 28.254811,-0.05245 28.254813,-0.05245 0.0737,11.534019 c 0.079,12.37524 0.0694,12.247534 1.13636,15.134171 1.88944,5.112017 6.6608,9.409497 12.14278,10.936763 1.51728,0.422713 1.85466,0.435389 13.28428,0.499088 l 11.72746,0.06536 -0.0513,41.391924 -0.0513,41.391917 -0.45419,1.12526 c -0.60404,1.4965 -1.47899,2.60742 -2.75655,3.49995 -2.02917,1.41765 1.82717,1.31167 -47.178062,1.29647 -35.914272,-0.0112 -44.317694,-0.0614 -44.879919,-0.26856 z m 72.275368,-26.88463 c 1.19422,-0.40692 2.52254,-1.73523 2.92945,-2.92946 0.87216,-2.55963 -0.10093,-5.13895 -2.38985,-6.3347 l -1.04033,-0.54347 H 97.253112 c -19.799581,0 -26.761715,0.0583 -27.33099,0.22885 -1.02279,0.30644 -2.360567,1.51688 -2.893773,2.61833 -0.660116,1.36362 -0.607961,3.19421 0.129654,4.55071 0.633751,1.16549 1.61005,2.03681 2.729219,2.43574 0.626278,0.22324 5.210936,0.27007 27.136264,0.27717 23.700314,0.008 26.475674,-0.0232 27.297494,-0.30317 z m 0.2289,-28.364501 c 1.81777,-0.846482 2.82495,-2.274808 2.97134,-4.213801 0.16419,-2.174718 -0.81126,-3.968362 -2.6711,-4.911582 L 123.7949,71.808438 H 97.065659 c -29.471261,0 -27.328069,-0.09356 -28.824511,1.258379 -2.794315,2.524497 -1.891724,7.306532 1.614023,8.551286 0.666717,0.236725 4.792156,0.280993 27.251632,0.292416 l 26.465987,0.01347 0.97709,-0.455002 z"
     id="path463"
     transform="scale(0.75)" />
  <path
     style="fill:#ffffff;stroke-width:0.194603"
     d="m 124.63246,37.665279 c -2.20373,-0.811869 -3.62028,-2.058487 -4.54413,-3.998992 l -0.6022,-1.264919 -0.0581,-5.838084 c -0.032,-3.210946 -0.032,-6.561316 0,-7.445265 l 0.0581,-1.607181 10.21595,10.218355 10.21595,10.218355 -7.29691,-0.01371 c -5.50413,-0.01035 -7.46687,-0.07632 -7.98866,-0.268559 z"
     id="path465"
     transform="scale(0.75)" />
</svg>
