<?xml version="1.0" encoding="UTF-8" standalone="no"?>
<svg
   width="128pt"
   height="128pt"
   version="1.1"
   viewBox="0 0 128 128"
   id="svg324"
   sodipodi:docname="noun-message-6619249.svg"
   inkscape:version="1.2.1 (9c6d41e410, 2022-07-14)"
   xmlns:inkscape="http://www.inkscape.org/namespaces/inkscape"
   xmlns:sodipodi="http://sodipodi.sourceforge.net/DTD/sodipodi-0.dtd"
   xmlns="http://www.w3.org/2000/svg"
   xmlns:svg="http://www.w3.org/2000/svg">
  <defs
     id="defs328" />
  <sodipodi:namedview
     id="namedview326"
     pagecolor="#ffffff"
     bordercolor="#000000"
     borderopacity="0.25"
     inkscape:showpageshadow="2"
     inkscape:pageopacity="0.0"
     inkscape:pagecheckerboard="0"
     inkscape:deskcolor="#d1d1d1"
     inkscape:document-units="pt"
     showgrid="false"
     inkscape:zoom="5.1386719"
     inkscape:cx="85.236032"
     inkscape:cy="85.430635"
     inkscape:window-width="944"
     inkscape:window-height="1033"
     inkscape:window-x="0"
     inkscape:window-y="0"
     inkscape:window-maximized="0"
     inkscape:current-layer="svg324" />
  <g
     id="g322">
    <path
       d="m45.512 102.5c0.16406 0.066406 0.33203 0.13672 0.49219 0.21484 15.84 7.3242 35.141 4.4766 48.168-8.5508 16.645-16.648 16.676-43.672 0-60.348-16.641-16.645-43.691-16.645-60.332 0.003906h-0.003906c-13.023 13.023-15.875 32.332-8.5469 48.164 0.074219 0.16797 0.14844 0.33594 0.21484 0.50391 0.054688 0.13672 0.11328 0.28125 0.17188 0.42969 1.0117 2.4922 2.6836 6.625 2.6836 11.09 0 2.4375-0.44141 4.6992-0.91797 6.5312 1.8086-0.47656 4.043-0.91797 6.4453-0.93359h0.0625c4.4453 0 8.6289 1.7031 11.07 2.6953 0.17188 0.070313 0.33594 0.13672 0.49219 0.19922zm-29.906-16.035c1.1758 2.9219 2.0859 5.2695 2.0859 7.543 0 2.457-0.91406 5.1445-1.8047 7.75-1.4102 4.1406-2.7578 8.0859-0.24219 10.598 2.5234 2.5195 6.4805 1.1602 10.625-0.26562 2.5859-0.89062 5.2461-1.8047 7.6797-1.8164 2.2734 0 4.6641 0.94922 7.5781 2.1211 19.75 9.1328 43.887 5.6133 60.188-10.688 20.805-20.809 20.844-54.586 0-75.434-20.809-20.809-54.613-20.809-75.422 0.003906-16.297 16.297-19.824 40.441-10.688 60.188z"
       fill-rule="evenodd"
       id="path314" />
    <path
       d="m48 64c0 2.9453-2.3867 5.332-5.332 5.332-2.9453 0-5.3359-2.3867-5.3359-5.332s2.3906-5.332 5.3359-5.332c2.9453 0 5.332 2.3867 5.332 5.332z"
       id="path316" />
    <path
       d="m69.332 64c0 2.9453-2.3867 5.332-5.332 5.332s-5.332-2.3867-5.332-5.332 2.3867-5.332 5.332-5.332 5.332 2.3867 5.332 5.332z"
       id="path318" />
    <path
       d="m90.668 64c0 2.9453-2.3906 5.332-5.3359 5.332-2.9453 0-5.332-2.3867-5.332-5.332s2.3867-5.332 5.332-5.332c2.9453 0 5.3359 2.3867 5.3359 5.332z"
       id="path320" />
  </g>
  <path
     style="fill:#ffffff;stroke-width:0.194603"
     d="m 78.814139,141.73974 c -3.034529,-0.36154 -6.426624,-1.05079 -9.439898,-1.9181 -2.305664,-0.66364 -4.157362,-1.36056 -9.492755,-3.5728 -8.995972,-3.73004 -15.089721,-4.39191 -22.649824,-2.46008 l -0.521283,0.1332 0.267012,-1.03928 c 0.491738,-1.91396 0.872856,-5.15527 0.872856,-7.42341 0,-4.98253 -0.971534,-8.79653 -4.261551,-16.72976 -2.438749,-5.88058 -3.480462,-9.354255 -4.283327,-14.283127 -2.212967,-13.585637 0.554983,-27.3607 7.872633,-39.179184 3.080117,-4.974591 7.809603,-10.291435 12.629975,-14.198499 8.386393,-6.797439 19.115616,-11.175714 30.048445,-12.26187 2.627951,-0.261083 8.347437,-0.256007 11.037944,0.0098 19.490254,1.925487 36.757564,13.892396 45.326414,31.412947 3.00523,6.144723 4.5352,11.222388 5.48252,18.195362 0.45623,3.358224 0.45404,10.486222 -0.004,13.8168 -1.9261,13.997851 -7.93209,25.585391 -18.12626,34.971571 -8.81911,8.1201 -20.02278,13.21018 -32.028706,14.55138 -3.253636,0.36346 -9.573954,0.35108 -12.729943,-0.0249 z M 59.540511,92.033391 c 1.506465,-0.563641 3.048875,-2.025675 3.846663,-3.64621 0.577399,-1.172866 0.637151,-1.459255 0.637151,-3.053848 0,-1.594593 -0.05975,-1.880982 -0.637151,-3.053847 -0.807074,-1.639402 -2.33774,-3.08131 -3.888014,-3.662563 -1.605814,-0.602078 -4.164267,-0.498267 -5.729722,0.232486 -3.023028,1.411149 -4.665499,4.949183 -3.858748,8.312099 0.299918,1.250191 1.457665,3.057309 2.435703,3.801864 1.944631,1.480398 4.916051,1.922352 7.194118,1.070019 z m 28.938316,-0.235607 c 1.467006,-0.720416 2.621557,-1.906901 3.355301,-3.448107 0.534903,-1.123547 0.602208,-1.460663 0.602208,-3.016344 0,-1.55568 -0.0673,-1.892796 -0.602208,-3.016343 -0.733744,-1.541206 -1.888295,-2.727691 -3.355301,-3.448107 -0.992891,-0.487589 -1.30475,-0.541251 -3.145494,-0.541251 -1.826867,0 -2.156853,0.05576 -3.114952,0.526309 -1.454913,0.714553 -2.657354,1.945396 -3.383133,3.463049 -0.538315,1.125647 -0.604917,1.457754 -0.604917,3.016343 0,1.565868 0.06482,1.885439 0.6118,3.016344 0.881671,1.822885 2.115943,2.997144 3.901518,3.711819 1.464615,0.58621 4.266838,0.457359 5.735178,-0.263712 z m 28.418403,0.02031 c 1.41103,-0.659729 2.65912,-1.907324 3.38303,-3.381711 0.51271,-1.044225 0.56809,-1.346725 0.56809,-3.103045 0,-1.756319 -0.0554,-2.05882 -0.56809,-3.103045 -0.72417,-1.474918 -1.97249,-2.722439 -3.38303,-3.380879 -1.56546,-0.730753 -4.12391,-0.834564 -5.72972,-0.232486 -1.55028,0.581253 -3.08094,2.023161 -3.88802,3.662563 -0.5774,1.172865 -0.63715,1.459254 -0.63715,3.053847 0,1.594593 0.0597,1.880982 0.63715,3.053848 0.77414,1.572505 2.33465,3.072994 3.79142,3.645607 1.52813,0.600663 4.30095,0.498485 5.82632,-0.214699 z"
     id="path330"
     transform="scale(0.75)" />
  <path
     style="fill:#ffffff;stroke-width:0.194603"
     d="m 80.468263,141.92825 c -2.428378,-0.24783 -6.47635,-0.92107 -8.466291,-1.40807 -3.491602,-0.8545 -5.719503,-1.61446 -10.28593,-3.50862 -6.244139,-2.59008 -9.55681,-3.60326 -13.454544,-4.11505 -2.895316,-0.38017 -7.496018,-0.01 -11.005683,0.88641 l -0.49713,0.12692 0.47678,-2.20083 c 0.414542,-1.91355 0.47875,-2.7216 0.49187,-6.1902 0.01409,-3.72421 -0.02134,-4.14384 -0.533054,-6.31376 -0.64555,-2.73745 -1.893534,-6.40265 -3.381536,-9.93122 -3.897732,-9.24287 -5.178856,-15.165173 -5.178856,-23.940497 0,-3.17575 0.09916,-5.210712 0.341387,-7.005701 1.832871,-13.58243 7.647995,-24.94095 17.643276,-34.462121 8.912332,-8.489591 20.929289,-13.892158 33.537078,-15.077553 3.158958,-0.297008 10.360363,-0.132095 13.156419,0.301284 19.007541,2.9461 34.623261,14.278629 42.909991,31.140329 2.96457,6.032255 4.53363,11.226435 5.46708,18.098061 0.46995,3.459536 0.475,10.534265 0.01,13.914101 -1.92972,14.024117 -7.91297,25.567777 -18.12627,34.971567 -8.86228,8.15985 -19.96399,13.20361 -32.028702,14.55138 -2.351216,0.26265 -9.124803,0.36269 -11.075819,0.16357 z M 60.070101,91.794166 c 1.341462,-0.656315 2.745778,-2.129029 3.429618,-3.596655 0.440746,-0.945914 0.518486,-1.375351 0.518486,-2.864178 0,-1.488826 -0.07774,-1.918264 -0.518486,-2.864177 -0.685029,-1.470176 -2.087956,-2.939768 -3.440515,-3.603998 -0.984218,-0.483343 -1.300525,-0.537526 -3.137881,-0.537526 -1.790432,0 -2.175856,0.06217 -3.114103,0.502328 -4.005249,1.878968 -5.340586,7.083953 -2.746694,10.70628 1.487241,2.076909 3.365967,2.945265 6.163599,2.848847 1.445025,-0.0498 1.957428,-0.156196 2.845976,-0.590921 z m 28.231073,0.106993 c 1.373577,-0.618187 2.916337,-2.175845 3.57103,-3.60551 0.47884,-1.045651 0.554509,-1.449892 0.554509,-2.962316 0,-2.253889 -0.600396,-3.692174 -2.155022,-5.162476 -1.455195,-1.376262 -2.49547,-1.801282 -4.646453,-1.898381 -2.290384,-0.103393 -3.536541,0.337577 -5.134331,1.816849 -1.646581,1.524442 -2.250953,2.93244 -2.250953,5.244008 0,1.516184 0.07518,1.915626 0.559718,2.973926 0.694026,1.515841 2.375278,3.141676 3.851848,3.724879 1.399568,0.552791 4.278671,0.486044 5.649654,-0.130979 z m 28.558276,-0.0737 c 1.36059,-0.626545 2.73754,-1.999793 3.44043,-3.431192 0.49053,-0.998922 0.54847,-1.322484 0.54847,-3.062938 0,-1.740453 -0.0579,-2.064015 -0.54847,-3.062937 -0.69985,-1.425207 -2.0741,-2.799451 -3.44043,-3.440436 -0.93825,-0.440156 -1.32367,-0.502328 -3.11411,-0.502328 -1.83735,0 -2.15366,0.05418 -3.13788,0.537526 -1.35256,0.66423 -2.75548,2.133822 -3.44051,3.603998 -0.44075,0.945913 -0.51849,1.375351 -0.51849,2.864177 0,1.485608 0.0781,1.919043 0.51466,2.855826 0.8796,1.887507 2.50764,3.390109 4.31008,3.978006 1.32749,0.432986 4.08611,0.259005 5.38625,-0.339702 z"
     id="path341"
     transform="scale(0.75)" />
</svg>
