<?xml version="1.0" encoding="UTF-8" standalone="no"?>
<svg
   width="360"
   height="362"
   viewBox="0 0 360 362"
   fill="none"
   version="1.1"
   id="svg83"
   sodipodi:docname="whatsapp.svg"
   inkscape:version="1.2.1 (9c6d41e410, 2022-07-14)"
   xmlns:inkscape="http://www.inkscape.org/namespaces/inkscape"
   xmlns:sodipodi="http://sodipodi.sourceforge.net/DTD/sodipodi-0.dtd"
   xmlns="http://www.w3.org/2000/svg"
   xmlns:svg="http://www.w3.org/2000/svg">
  <defs
     id="defs87" />
  <sodipodi:namedview
     id="namedview85"
     pagecolor="#ffffff"
     bordercolor="#000000"
     borderopacity="0.25"
     inkscape:showpageshadow="2"
     inkscape:pageopacity="0.0"
     inkscape:pagecheckerboard="0"
     inkscape:deskcolor="#d1d1d1"
     showgrid="false"
     inkscape:zoom="2.4226519"
     inkscape:cx="179.96807"
     inkscape:cy="181"
     inkscape:window-width="1920"
     inkscape:window-height="1080"
     inkscape:window-x="0"
     inkscape:window-y="0"
     inkscape:window-maximized="0"
     inkscape:current-layer="svg83" />
  <path
     fill-rule="evenodd"
     clip-rule="evenodd"
     d="M307.546 52.5655C273.709 18.685 228.706 0.0171895 180.756 0C81.951 0 1.53846 80.404 1.50408 179.235C1.48689 210.829 9.74646 241.667 25.4319 268.844L0 361.736L95.0236 336.811C121.203 351.096 150.683 358.616 180.679 358.625H180.756C279.544 358.625 359.966 278.212 360 179.381C360.017 131.483 341.392 86.4547 307.546 52.5741V52.5655ZM180.756 328.354H180.696C153.966 328.346 127.744 321.16 104.865 307.589L99.4242 304.358L43.034 319.149L58.0834 264.168L54.5423 258.53C39.6304 234.809 31.749 207.391 31.7662 179.244C31.8006 97.1036 98.6334 30.2707 180.817 30.2707C220.61 30.2879 258.015 45.8015 286.145 73.9665C314.276 102.123 329.755 139.562 329.738 179.364C329.703 261.513 262.871 328.346 180.756 328.346V328.354ZM262.475 216.777C257.997 214.534 235.978 203.704 231.869 202.209C227.761 200.713 224.779 199.966 221.796 204.452C218.814 208.939 210.228 219.029 207.615 222.011C205.002 225.002 202.389 225.372 197.911 223.128C193.434 220.885 179.003 216.158 161.891 200.902C148.578 189.024 139.587 174.362 136.975 169.875C134.362 165.389 136.7 162.965 138.934 160.739C140.945 158.728 143.412 155.505 145.655 152.892C147.899 150.279 148.638 148.406 150.133 145.423C151.629 142.432 150.881 139.82 149.764 137.576C148.646 135.333 139.691 113.287 135.952 104.323C132.316 95.5909 128.621 96.777 125.879 96.6309C123.266 96.5019 120.284 96.4762 117.293 96.4762C114.302 96.4762 109.454 97.5935 105.346 102.08C101.238 106.566 89.6691 117.404 89.6691 139.441C89.6691 161.478 105.716 182.785 107.959 185.776C110.202 188.767 139.544 234.001 184.469 253.408C195.153 258.023 203.498 260.782 210.004 262.845C220.731 266.257 230.494 265.776 238.212 264.624C246.816 263.335 264.71 253.786 268.44 243.326C272.17 232.866 272.17 223.893 271.053 222.028C269.936 220.163 266.945 219.037 262.467 216.794L262.475 216.777Z"
     fill="#25D366"
     id="path81" />
  <path
     style="fill:none;stroke-width:0.412771"
     d="m 173.77651,327.8815 c -23.90495,-0.9522 -47.45732,-8.00873 -69.0525,-20.68884 l -5.279411,-3.09993 -2.150466,0.57105 c -14.881176,3.95163 -53.763889,14.10804 -53.81774,14.05754 -0.03901,-0.0366 3.287212,-12.34127 7.391606,-27.34374 l 7.462533,-27.27721 -3.450786,-5.53593 C 38.52478,232.32696 30.740467,202.56601 32.235397,171.99067 34.037504,135.13271 49.169589,100.95027 75.318756,74.668031 81.974904,67.978015 87.638371,63.094915 94.031589,58.533641 115.35913,43.317395 138.64944,34.375948 164.90194,31.325615 c 7.08799,-0.823569 23.10605,-0.930877 30.13227,-0.201863 34.12382,3.54056 64.51252,17.593276 88.85719,41.090435 24.81397,23.950126 39.52491,53.208353 44.52771,88.560043 0.92966,6.56934 1.06532,28.37829 0.21825,35.08552 -1.7613,13.94614 -4.7244,25.78923 -9.44956,37.76853 -16.36552,41.49009 -50.77694,73.77116 -93.19578,87.42619 -16.58088,5.33755 -33.63397,7.56719 -52.21551,6.82703 z m 65.58661,-63.30473 c 11.10774,-2.43345 24.50701,-11.57221 28.31083,-19.30895 2.621,-5.33097 4.76836,-16.32634 4.11552,-21.07312 -0.20646,-1.50108 -0.61744,-2.41228 -1.47467,-3.26951 -1.69838,-1.69839 -33.7779,-17.33344 -39.56241,-19.2821 -4.93002,-1.6608 -6.29667,-1.06701 -10.585,4.59909 -5.22419,6.90264 -13.38587,16.46976 -14.77066,17.31419 -1.97894,1.20673 -3.66141,0.95874 -8.86304,-1.30637 -24.19003,-10.53383 -40.69975,-24.2822 -55.23531,-45.99686 -3.86546,-5.77463 -5.08401,-8.13881 -5.08401,-9.86382 0,-1.9457 0.48371,-2.88379 2.68251,-5.20232 4.37196,-4.61002 8.90303,-10.55127 10.48987,-13.75457 2.49127,-5.02905 2.43249,-5.50442 -1.9861,-16.06215 -2.02041,-4.82754 -5.3867,-12.95665 -7.48066,-18.06469 C 132.72498,95.753937 133.2614,96.228933 120.8866,96.451581 l -7.60286,0.136788 -2.71073,1.335595 c -4.83183,2.380666 -11.971974,10.621236 -15.83115,18.271016 -3.843557,7.61882 -5.360981,15.00145 -5.048039,24.55987 0.223623,6.83025 0.814946,10.1421 3.021656,16.9236 3.015654,9.26749 7.845033,18.17617 16.153683,29.79846 9.46991,13.24666 16.67956,21.7939 26.97607,31.98085 17.88373,17.69343 34.37403,28.67156 55.62848,37.03368 13.05459,5.13605 21.48265,7.70053 29.15229,8.87041 2.72313,0.41538 15.74876,-0.1304 18.73712,-0.78508 z"
     id="path262" />
  <path
     style="fill:#ffffff;stroke-width:0.412771"
     d="m 173.77651,327.8815 c -23.90495,-0.9522 -47.45732,-8.00873 -69.0525,-20.68884 l -5.279411,-3.09993 -2.150466,0.57105 c -14.881176,3.95163 -53.763889,14.10804 -53.81774,14.05754 -0.03901,-0.0366 3.287212,-12.34127 7.391606,-27.34374 l 7.462533,-27.27721 -3.450786,-5.53593 C 38.52478,232.32696 30.740467,202.56601 32.235397,171.99067 34.037504,135.13271 49.169589,100.95027 75.318756,74.668031 81.974904,67.978015 87.638371,63.094915 94.031589,58.533641 115.35913,43.317395 138.64944,34.375948 164.90194,31.325615 c 7.08799,-0.823569 23.10605,-0.930877 30.13227,-0.201863 34.12382,3.54056 64.51252,17.593276 88.85719,41.090435 24.81397,23.950126 39.52491,53.208353 44.52771,88.560043 0.92966,6.56934 1.06532,28.37829 0.21825,35.08552 -1.7613,13.94614 -4.7244,25.78923 -9.44956,37.76853 -16.36552,41.49009 -50.77694,73.77116 -93.19578,87.42619 -16.58088,5.33755 -33.63397,7.56719 -52.21551,6.82703 z m 65.58661,-63.30473 c 11.10774,-2.43345 24.50701,-11.57221 28.31083,-19.30895 2.621,-5.33097 4.76836,-16.32634 4.11552,-21.07312 -0.20646,-1.50108 -0.61744,-2.41228 -1.47467,-3.26951 -1.69838,-1.69839 -33.7779,-17.33344 -39.56241,-19.2821 -4.93002,-1.6608 -6.29667,-1.06701 -10.585,4.59909 -5.22419,6.90264 -13.38587,16.46976 -14.77066,17.31419 -1.97894,1.20673 -3.66141,0.95874 -8.86304,-1.30637 -24.19003,-10.53383 -40.69975,-24.2822 -55.23531,-45.99686 -3.86546,-5.77463 -5.08401,-8.13881 -5.08401,-9.86382 0,-1.9457 0.48371,-2.88379 2.68251,-5.20232 4.37196,-4.61002 8.90303,-10.55127 10.48987,-13.75457 2.49127,-5.02905 2.43249,-5.50442 -1.9861,-16.06215 -2.02041,-4.82754 -5.3867,-12.95665 -7.48066,-18.06469 C 132.72498,95.753937 133.2614,96.228933 120.8866,96.451581 l -7.60286,0.136788 -2.71073,1.335595 c -4.83183,2.380666 -11.971974,10.621236 -15.83115,18.271016 -3.843557,7.61882 -5.360981,15.00145 -5.048039,24.55987 0.223623,6.83025 0.814946,10.1421 3.021656,16.9236 3.015654,9.26749 7.845033,18.17617 16.153683,29.79846 9.46991,13.24666 16.67956,21.7939 26.97607,31.98085 17.88373,17.69343 34.37403,28.67156 55.62848,37.03368 13.05459,5.13605 21.48265,7.70053 29.15229,8.87041 2.72313,0.41538 15.74876,-0.1304 18.73712,-0.78508 z"
     id="path264" />
  <path
     style="fill:#ffffff;stroke-width:0.412771"
     d="m 173.77651,327.88895 c -23.68967,-0.91773 -47.28721,-7.97235 -68.93817,-20.60948 -2.8348,-1.65461 -5.43281,-2.9845 -5.773346,-2.95532 -0.340536,0.0292 -12.968714,3.30004 -28.062615,7.26858 -15.093902,3.96854 -27.481405,7.17758 -27.527784,7.1312 -0.04638,-0.0464 3.264873,-12.33924 7.358337,-27.31747 l 7.442662,-27.23314 -4.006535,-6.60433 C 39.275537,232.85381 32.162387,207.71583 32.135572,179.34892 c -0.0117,-12.37718 0.988676,-21.6592 3.581175,-33.22805 4.887628,-21.81073 15.991903,-44.20223 30.608756,-61.721821 25.37592,-30.415291 60.727317,-49.20504 100.227517,-53.2723 6.37503,-0.656425 22.10986,-0.656174 28.48119,4.54e-4 34.3337,3.53842 64.78879,17.693855 89.31338,41.512592 25.97381,25.226232 41.58807,58.181265 44.65418,94.245855 0.6356,7.47612 0.29605,24.44491 -0.62521,31.24434 -5.5931,41.28056 -27.39032,77.77422 -60.90108,101.96269 -23.41508,16.9013 -51.54724,26.6887 -79.87115,27.78781 -3.8594,0.14977 -10.08192,0.15357 -13.82782,0.008 z m 65.37009,-63.28381 c 10.01851,-2.17536 22.59447,-10.18419 27.52893,-17.53142 2.67989,-3.99026 4.97878,-12.98842 5.07385,-19.85974 0.075,-5.42275 -0.19709,-5.9001 -4.78263,-8.38948 -4.50329,-2.44472 -28.05084,-13.79774 -33.03484,-15.92714 -6.92852,-2.96019 -9.26746,-2.65984 -12.38415,1.59029 -5.47231,7.4624 -14.83075,18.4223 -16.44185,19.25543 -1.90522,0.98522 -3.53149,0.70196 -8.57222,-1.49308 -16.41911,-7.14989 -27.63843,-14.63461 -38.8694,-25.93085 -6.12448,-6.16008 -10.15829,-11.02133 -15.00169,-18.07891 -4.99009,-7.27134 -6.44823,-9.9689 -6.44823,-11.92921 0,-1.94986 0.37907,-2.54015 5.15963,-8.03455 4.55926,-5.24005 6.45892,-7.84677 8.05712,-11.05602 2.05573,-4.12798 2.06754,-5.73525 0.0781,-10.636 -7.67418,-18.9047 -14.38628,-34.58092 -15.57323,-36.37153 -2.31136,-3.486852 -2.78152,-3.624561 -12.37501,-3.624561 h -8.25541 l -2.47663,1.198187 c -4.69566,2.271754 -12.288408,10.877354 -15.877615,17.995654 -3.961803,7.85726 -5.161967,13.27954 -5.161967,23.32155 0,8.46308 0.476337,11.35714 3.155418,19.17129 3.802961,11.09219 9.005434,20.05812 20.730724,35.72723 17.25958,23.06489 37.9644,41.94583 58.82067,53.63919 13.5144,7.57703 36.22524,15.94218 48.12981,17.72778 2.55145,0.3827 15.74613,-0.16167 18.5206,-0.76411 z"
     id="path335" />
</svg>
